<?xml version="1.0" standalone="no"?>
<!DOCTYPE svg PUBLIC "-//W3C//DTD SVG 20010904//EN"
 "http://www.w3.org/TR/2001/REC-SVG-20010904/DTD/svg10.dtd">
<svg version="1.0" xmlns="http://www.w3.org/2000/svg"
 width="396.000000pt" height="396.000000pt" viewBox="0 0 396.000000 396.000000"
 preserveAspectRatio="xMidYMid meet">
<metadata>
Created by potrace 1.14, written by Peter Selinger 2001-2017
</metadata>
<g transform="translate(0.000000,396.000000) scale(0.100000,-0.100000)"
fill="#000000" stroke="none">
<path d="M1902 3757 c-59 -22 -91 -61 -197 -248 -59 -105 -117 -206 -125 -219
-6 -8 -93 -159 -195 -335 -104 -181 -190 -319 -197 -318 -27 4 -74 14 -88 19
-8 3 -32 8 -52 11 -32 4 -38 2 -38 -13 0 -22 42 -80 89 -122 l36 -32 -35 6
c-19 3 -46 9 -60 14 -34 10 -131 3 -190 -15 -9 -3 -42 -7 -74 -9 -79 -7 -121
-22 -141 -53 -16 -24 -16 -26 1 -43 17 -15 147 -66 193 -75 9 -2 36 -10 61
-19 25 -9 52 -16 60 -16 46 -1 44 -16 -17 -122 -34 -56 -70 -119 -81 -138 -22
-40 -341 -591 -378 -654 -13 -22 -44 -77 -69 -121 -25 -44 -50 -87 -55 -95 -6
-8 -49 -82 -96 -165 -48 -82 -100 -172 -116 -200 -75 -130 -91 -169 -89 -218
1 -64 34 -122 89 -162 l44 -30 338 0 c324 0 402 -6 260 -20 -165 -16 -186 -28
-36 -20 63 3 123 12 145 21 31 14 144 16 894 16 472 0 860 -2 863 -4 2 -3 -1
-29 -7 -59 -6 -30 -11 -61 -11 -69 -3 -69 18 -60 27 13 10 76 16 111 20 115 1
2 248 4 546 5 l544 2 37 26 c47 32 72 64 88 113 24 73 10 107 -151 386 -83
144 -159 277 -170 294 -10 17 -22 38 -26 46 -4 8 -43 75 -86 150 -44 74 -80
142 -80 150 0 8 -8 21 -17 30 -10 8 -42 59 -73 112 l-56 97 28 23 c38 31 195
218 182 218 -5 0 -27 -21 -48 -47 -95 -119 -151 -175 -166 -170 -9 3 -142 221
-164 267 -4 8 -44 78 -88 155 -45 77 -93 160 -107 185 -14 25 -108 187 -208
360 -100 173 -194 335 -208 360 -14 25 -35 61 -47 80 -12 19 -25 45 -29 58 -4
12 -12 22 -17 22 -5 0 -9 4 -9 9 0 14 -210 372 -234 400 -47 53 -141 74 -214
48z"/>
<path d="M3687 1620 c-15 -5 -42 -11 -60 -14 -94 -15 -197 -40 -197 -48 0 -5
4 -7 8 -4 5 3 24 8 43 11 19 3 55 10 80 16 57 13 62 14 122 24 26 4 47 11 47
16 0 10 -5 10 -43 -1z"/>
<path d="M3390 1558 c0 -4 7 -8 15 -8 8 0 15 4 15 8 0 5 -7 9 -15 9 -8 0 -15
-4 -15 -9z"/>
</g>
</svg>
